<svg xmlns="http://www.w3.org/2000/svg" viewBox="0 0 1350.18 280.26"><defs><style>.cls-1{fill:#fff;}</style></defs><g id="Layer_2" data-name="Layer 2"><g id="Layer_1-2" data-name="Layer 1"><path class="cls-1" d="M331.8,151.38c-17.33-5.56-25.31-12.88-25.31-22.94.5-11.18,10.94-19.61,25.15-20.13a57.18,57.18,0,0,1,31.8,9.51c2.56,1.55,3.81,1,5.3-1,.16-.26.71-1,2.53-3.64h0c1.72-2.47,2.39-3.43,2.57-3.73,1.24-2.33,1.24-3.58-1.32-5.39A78.24,78.24,0,0,0,360.74,98,76.15,76.15,0,0,0,331,92.43c-22.81.49-40.66,15.28-41.84,34.76-.75,14.08,6.44,25.39,21.35,33.71,4.24,2.23,19.44,7.92,26.39,9.95,19.88,5.8,30.05,16.36,28,28.67-1.91,11.2-13.76,18.74-30.57,19.26-12.28-.25-24.6-4.75-35.27-12.73l-.83-.62-.83-.61c-2.34-1.61-4-1.61-5.65.81-.06.1-1.35,2.06-2.64,4-1.51,2.27-2.16,3.26-2.51,3.81-1.38,2-1.14,3.14.87,4.83h0a83.24,83.24,0,0,0,13.57,8.9,79.33,79.33,0,0,0,33.44,8,58.26,58.26,0,0,0,24.57-4.63c13.07-5.81,21.42-17.14,22.88-31.1C384.31,176.77,369.48,162.66,331.8,151.38Z"/><path class="cls-1" d="M437.5,145.73A42.27,42.27,0,0,0,412.35,154V95.54c0-2.28-.9-3.16-3.17-3.16H398.59c-2.52,0-3.17.83-3.17,3.16V231.46c0,2.24.65,3.17,3.17,3.17h10.59c2.3,0,3.17-1,3.17-3.17V187.07c0-15.16,11.33-24.71,25.15-24.71s25.15,9.55,25.15,24.81v44.29c0,2.57.63,3.17,3.17,3.17h10.56c2.52,0,3.18-.6,3.18-3.17V187C479.47,164.29,460.49,145.73,437.5,145.73Z"/><path class="cls-1" d="M538.52,145.83c-25.13,0-45.51,20-45.51,44.59S513.39,235,538.52,235s45.5-20,45.5-44.6S563.64,145.83,538.52,145.83Zm0,72.79c-15.92,0-28.82-12.63-28.82-28.22s12.9-28.22,28.82-28.22,28.81,12.64,28.81,28.22S554.42,218.62,538.51,218.62Z"/><path class="cls-1" d="M882.54,196.42h.23a5.3,5.3,0,0,0,5-5.36c0-.14,0-.26,0-.38s0-.13,0-.32c0-24.63-19.31-44.6-43.15-44.6s-43.14,20-43.14,44.6a45.42,45.42,0,0,0,.33,5.48l.07.58h0A43.4,43.4,0,0,0,812.79,220s0,0,0,0a45.89,45.89,0,0,0,25.58,14.12l.77.14v0l1.17.18c13.67,1.65,25.18-.57,34.51-5.27a42.42,42.42,0,0,0,6.5-4c.64-.48,1.19-.93,1.64-1.33.28-.24.47-.42.57-.52,2.41-2.49,2.52-3.56,1.08-5.81-3.34-5.32-5.21-7.92-5.21-7.92-1.31-1.63-2.49-2-4.16-.53-.29.26-.56.43-.7.58-10,8.85-23,10.59-34.42,8.21a38.05,38.05,0,0,1-6.55-2.39,27.6,27.6,0,0,1-15-19.06h63.95Zm-62.91-16.35c3.31-10.79,13.31-18,25-18a27.64,27.64,0,0,1,25.42,18Z"/><path class="cls-1" d="M642.73,145.6a44.57,44.57,0,0,0-28.29,10.06v-6.9c0-2.4-.66-3.16-3.18-3.16H601.19c-2.51,0-3.17.7-3.17,3.16V277.09c0,2.33.66,3.17,3.17,3.17h10.07c2.52,0,3.18-.82,3.18-3.17V224.73a44.65,44.65,0,1,0,28.29-79.13Zm0,72.79a28.26,28.26,0,0,1-28.28-27.5v-1.45a28.29,28.29,0,1,1,28.28,28.95Z"/><path class="cls-1" d="M787.86,190.36c0-24.63-19.31-44.6-43.14-44.6s-43.14,20-43.14,44.6a47.55,47.55,0,0,0,.32,5.48l.07.58h0A43.4,43.4,0,0,0,712.91,220l0,0a45.93,45.93,0,0,0,25.58,14.12l.78.14v0l1.16.18c13.68,1.65,25.18-.57,34.51-5.27a42.55,42.55,0,0,0,6.51-4c.63-.48,1.18-.93,1.64-1.33.28-.24.46-.42.56-.52,2.42-2.49,2.52-3.56,1.08-5.81-3.34-5.32-5.21-7.92-5.21-7.92-1.31-1.63-2.49-2-4.15-.53-.3.26-.57.43-.71.58-10,8.85-23,10.59-34.42,8.21a38.36,38.36,0,0,1-6.55-2.39,27.6,27.6,0,0,1-15-19.06h64.18a5.3,5.3,0,0,0,5-5.36c0-.14,0-.26,0-.38A2.13,2.13,0,0,0,787.86,190.36Zm-68.11-10.29c3.31-10.79,13.31-18,25-18a27.65,27.65,0,0,1,25.43,18Z"/><path class="cls-1" d="M237.28,69.27a5.08,5.08,0,0,0-5.09-5.08H177.12C175.76,28.48,150.1,0,118.63,0S61.5,28.48,60.15,64.19H5a5.09,5.09,0,0,0-5,5.08c0,.14,0,.27,0,.4H0L7.84,241.79,8,244c1.2,12,10,21.62,21.85,22.07h0l175,0h.88c12.11-.33,21.91-10.11,23-22.24l.08-1.46,8.57-172.8h0A2.17,2.17,0,0,0,237.28,69.27ZM118.63,15.53c22.93,0,41.61,21.61,42.49,48.66h-85C77,37.14,95.71,15.53,118.63,15.53Zm43.71,183.74c-1.57,12.85-9.41,23.15-21.56,28.31a54.46,54.46,0,0,1-23,3.93,74.56,74.56,0,0,1-31.35-8.07,77.63,77.63,0,0,1-12.58-8.58c-.89-.74-1.35-1.4-.49-2.6.91-1.37,4.51-6.57,5.07-7.43.77-1.17,2-1.22,3.18-.32l1.56,1.2c9.32,7.25,21.33,12.69,34.68,13.2,16.84-.23,29.06-7.73,31.24-19.34,2.4-12.79-7.81-23.77-27.47-29.89-6.26-2-22-8.2-24.88-9.89q-20.55-12-19.17-31.34C79,110.58,95.62,97.2,116.78,97.11a71.81,71.81,0,0,1,27.86,5.7,74.7,74.7,0,0,1,10.89,5.9,2.13,2.13,0,0,1,.75,3.12c-.83,1.39-3.32,5.26-4.32,6.87-.73,1.1-1.64,1.23-2.92.42a58.55,58.55,0,0,0-32-9.86c-14.45.28-25.35,8.81-26.07,20.51-.19,10.56,7.9,18.23,25,24.08C151.47,165.15,164.89,178.44,162.34,199.27Z"/><path class="cls-1" d="M935.26,234.72v-80.6H918.14V139.89l17.12-2.5V124.31q0-34.62,32.51-34.63,11.73,0,20.2,3.66v15.58q-11-1.35-14.62-1.35-8.28,0-11.83,3.18T958,121.42v15.39h28.85v17.31H958v80.6Z"/><path class="cls-1" d="M1001.82,234.72V136.81h18.85l3.08,14.62q7.68-8.46,14.42-11.93a31.6,31.6,0,0,1,14.62-3.46,57.76,57.76,0,0,1,7.89.58v20.77a62.41,62.41,0,0,0-11-1,44.37,44.37,0,0,0-25.19,7.31v71Z"/><path class="cls-1" d="M1094.15,191.25q.55,14.63,7.89,21.45t22.58,6.83q13.76,0,29.74-5.39v16a63.2,63.2,0,0,1-15.49,5.48,84.39,84.39,0,0,1-18.56,2q-24.24,0-36.74-13.08t-12.51-38.09q0-24.81,12.22-38.66t34.14-13.85q18.86,0,28.95,10.29t10.1,29.14a87,87,0,0,1-1.67,17.89Zm23.16-40.78a20.55,20.55,0,0,0-16,6.92q-6.21,6.93-7.11,18.66h42.12v-1.54q0-11.73-4.83-17.89T1117.31,150.47Z"/><path class="cls-1" d="M1223,208.18a9,9,0,0,0-2.71-6.83q-2.7-2.59-10-5.29l-16-6.16q-21.62-8.27-21.62-26.93,0-13.46,10-21.25t26.74-7.79a66.14,66.14,0,0,1,28.85,6.15v16q-15.06-4.81-27.62-4.81-8.89,0-13,2.6T1193.4,162a8.6,8.6,0,0,0,3,6.83q3,2.59,10.71,5.67l14.87,5.77q11.6,4.44,16.7,10.58t5.12,15.59q0,14.42-10.39,22.79t-28.85,8.37a81.49,81.49,0,0,1-17.7-1.93,60,60,0,0,1-15.19-5.38v-16q18.52,6,32.82,6,9.66,0,14.09-3T1223,208.18Z"/><path class="cls-1" d="M1327.48,234.72V169.9q0-9.42-3.85-13.76t-12.31-4.32q-12.71,0-26,8.46v74.44h-22.7V92.38h22.7v54.05q17.89-12.51,36.16-12.5,14,0,21.36,7.4t7.31,21.45v71.94Z"/></g></g></svg>